ffmpeg started on 2025-06-07 at 15:24:46
Report written to "D:\Convert\FFMetrics\reports\ssim_report-6.txt"
Log level: 32
Command line:
ffmpeg -hide_banner -nostdin -i "G:\\\xc0\xed\xe8\xec\xe5\\\xce\xed\xe3\xee\xe8\xed\xe3\xe8\\!_36_\xce\xf1\xe5\xed\xfc_2024\\DreamCast\\\xd1\xee\xe1\xeb\xe0\xe7\xed 2,5-\xec\xe5\xf0\xed\xee\xe3\xee \xe8\xe7\xec\xe5\xf0\xe5\xed\xe8\xff\\[DC] 2-5 Jigen no Ririsa - 13_Telegram_HEVC.mkv" -i "G:\\\xc0\xed\xe8\xec\xe5\\\xce\xed\xe3\xee\xe8\xed\xe3\xe8\\!_36_\xce\xf1\xe5\xed\xfc_2024\\DreamCast\\\xd1\xee\xe1\xeb\xe0\xe7\xed 2,5-\xec\xe5\xf0\xed\xee\xe3\xee \xe8\xe7\xec\xe5\xf0\xe5\xed\xe8\xff\\[DC] 2-5 Jigen no Ririsa - 13_Telegram.mp4" -lavfi "[0:v]settb=AVTB,setpts=PTS-STARTPTS,format=pix_fmts=yuv420p10,fps=24/1,scale=1920:1080:flags=bicubic[main];[1:v]settb=AVTB,setpts=PTS-STARTPTS,format=pix_fmts=yuv420p,fps=24/1,scale=1920:1080:flags=bicubic[ref];[main][ref]ssim=eof_action=endall:stats_file='D\\:/Convert/FFMetrics/logs/ssim_logfile-6.txt'" -f null -
Input #0, matroska,webm, from 'G:\Аниме\Онгоинги\!_36_Осень_2024\DreamCast\Соблазн 2,5-мерного измерения\[DC] 2-5 Jigen no Ririsa - 13_Telegram_HEVC.mkv':
  Metadata:
    COMPATIBLE_BRANDS: isomiso2avc1mp41
    MAJOR_BRAND     : isom
    MINOR_VERSION   : 512
    ENCODER         : Lavf61.7.100
  Duration: 00:24:09.13, start: -0.021000, bitrate: 1396 kb/s
  Stream #0:0: Video: hevc (Main 10), yuv420p10le(tv, bt709, progressive), 1920x1080 [SAR 1:1 DAR 16:9], 24 fps, 24 tbr, 1k tbn (default)
      Metadata:
        HANDLER_NAME    : VideoHandler
        VENDOR_ID       : [0][0][0][0]
        ENCODER         : Lavc61.19.100 libx265
        BPS             : 1199726
        DURATION        : 00:24:08.999666666
        NUMBER_OF_FRAMES: 34776
        NUMBER_OF_BYTES : 217300345
        _STATISTICS_WRITING_APP: mkvpropedit v66.0.0 ('Josie') 64-bit
        _STATISTICS_WRITING_DATE_UTC: 2025-06-04 11:52:42
        _STATISTICS_TAGS: BPS DURATION NUMBER_OF_FRAMES NUMBER_OF_BYTES
  Stream #0:1: Audio: aac (LC), 48000 Hz, stereo, fltp (default)
      Metadata:
        HANDLER_NAME    : SoundHandler
        VENDOR_ID       : [0][0][0][0]
        ENCODER         : Lavc61.19.100 aac
        BPS             : 192769
        DURATION        : 00:24:09.130000000
        NUMBER_OF_FRAMES: 67929
        NUMBER_OF_BYTES : 34918514
        _STATISTICS_WRITING_APP: mkvpropedit v66.0.0 ('Josie') 64-bit
        _STATISTICS_WRITING_DATE_UTC: 2025-06-04 11:52:42
        _STATISTICS_TAGS: BPS DURATION NUMBER_OF_FRAMES NUMBER_OF_BYTES
Input #1, mov,mp4,m4a,3gp,3g2,mj2, from 'G:\Аниме\Онгоинги\!_36_Осень_2024\DreamCast\Соблазн 2,5-мерного измерения\[DC] 2-5 Jigen no Ririsa - 13_Telegram.mp4':
  Metadata:
    major_brand     : isom
    minor_version   : 512
    compatible_brands: isomiso2avc1mp41
    encoder         : Lavf61.1.100
  Duration: 00:24:09.07, start: 0.000000, bitrate: 3891 kb/s
  Stream #1:0[0x1](und): Video: h264 (High) (avc1 / 0x31637661), yuv420p(tv, bt709, progressive), 1920x1080 [SAR 1:1 DAR 16:9], 3743 kb/s, 24 fps, 24 tbr, 12288 tbn (default)
      Metadata:
        handler_name    : VideoHandler
        vendor_id       : [0][0][0][0]
        encoder         : Lavc61.3.100 h264_qsv
  Stream #1:1[0x2](und): Audio: aac (HE-AACv2) (mp4a / 0x6134706D), 48000 Hz, stereo, fltp, 144 kb/s (default)
      Metadata:
        handler_name    : SoundHandler
        vendor_id       : [0][0][0][0]
Stream mapping:
  Stream #0:0 (hevc) -> settb:default
  Stream #1:0 (h264) -> settb:default
  ssim:default -> Stream #0:0 (wrapped_avframe)
  Stream #0:1 -> #0:1 (aac (native) -> pcm_s16le (native))
Output #0, null, to 'pipe:':
  Metadata:
    COMPATIBLE_BRANDS: isomiso2avc1mp41
    MAJOR_BRAND     : isom
    MINOR_VERSION   : 512
    encoder         : Lavf61.7.100
  Stream #0:0: Video: wrapped_avframe, yuv420p10le(tv, bt709, progressive), 1920x1080 [SAR 1:1 DAR 16:9], q=2-31, 200 kb/s, 24 fps, 24 tbn
      Metadata:
        encoder         : Lavc61.19.100 wrapped_avframe
  Stream #0:1: Audio: pcm_s16le, 48000 Hz, stereo, s16, 1536 kb/s (default)
      Metadata:
        HANDLER_NAME    : SoundHandler
        VENDOR_ID       : [0][0][0][0]
        _STATISTICS_TAGS: BPS DURATION NUMBER_OF_FRAMES NUMBER_OF_BYTES
        BPS             : 192769
        DURATION        : 00:24:09.130000000
        NUMBER_OF_FRAMES: 67929
        NUMBER_OF_BYTES : 34918514
        _STATISTICS_WRITING_APP: mkvpropedit v66.0.0 ('Josie') 64-bit
        _STATISTICS_WRITING_DATE_UTC: 2025-06-04 11:52:42
        encoder         : Lavc61.19.100 pcm_s16le
frame=  179 fps=0.0 q=-0.0 size=N/A time=00:00:07.45 bitrate=N/A speed=14.5x    frame=  386 fps=378 q=-0.0 size=N/A time=00:00:16.08 bitrate=N/A speed=15.7x    frame=  604 fps=391 q=-0.0 size=N/A time=00:00:25.16 bitrate=N/A speed=16.3x    frame=  859 fps=419 q=-0.0 size=N/A time=00:00:35.79 bitrate=N/A speed=17.4x    frame= 1078 fps=419 q=-0.0 size=N/A time=00:00:44.91 bitrate=N/A speed=17.4x    frame= 1294 fps=420 q=-0.0 size=N/A time=00:00:53.91 bitrate=N/A speed=17.5x    frame= 1532 fps=426 q=-0.0 size=N/A time=00:01:03.83 bitrate=N/A speed=17.8x    frame= 1778 fps=432 q=-0.0 size=N/A time=00:01:14.08 bitrate=N/A speed=  18x    frame= 2013 fps=435 q=-0.0 size=N/A time=00:01:23.87 bitrate=N/A speed=18.1x    frame= 2232 fps=433 q=-0.0 size=N/A time=00:01:33.00 bitrate=N/A speed=  18x    frame= 2393 fps=422 q=-0.0 size=N/A time=00:01:39.70 bitrate=N/A speed=17.6x    frame= 2590 fps=419 q=-0.0 size=N/A time=00:01:47.91 bitrate=N/A speed=17.5x    frame= 2824 fps=421 q=-0.0 size=N/A time=00:01:57.66 bitrate=N/A speed=17.6x    frame= 3039 fps=421 q=-0.0 size=N/A time=00:02:06.62 bitrate=N/A speed=17.6x    frame= 3256 fps=421 q=-0.0 size=N/A time=00:02:15.66 bitrate=N/A speed=17.5x    frame= 3477 fps=422 q=-0.0 size=N/A time=00:02:24.87 bitrate=N/A speed=17.6x    frame= 3686 fps=421 q=-0.0 size=N/A time=00:02:33.58 bitrate=N/A speed=17.5x    frame= 3915 fps=423 q=-0.0 size=N/A time=00:02:43.12 bitrate=N/A speed=17.6x    frame= 4158 fps=425 q=-0.0 size=N/A time=00:02:53.25 bitrate=N/A speed=17.7x    frame= 4383 fps=425 q=-0.0 size=N/A time=00:03:02.62 bitrate=N/A speed=17.7x    frame= 4600 fps=425 q=-0.0 size=N/A time=00:03:11.66 bitrate=N/A speed=17.7x    frame= 4826 fps=426 q=-0.0 size=N/A time=00:03:21.08 bitrate=N/A speed=17.7x    frame= 5026 fps=424 q=-0.0 size=N/A time=00:03:29.41 bitrate=N/A speed=17.7x    frame= 5248 fps=424 q=-0.0 size=N/A time=00:03:38.66 bitrate=N/A speed=17.7x    frame= 5467 fps=425 q=-0.0 size=N/A time=00:03:47.79 bitrate=N/A speed=17.7x    frame= 5696 fps=425 q=-0.0 size=N/A time=00:03:57.33 bitrate=N/A speed=17.7x    frame= 5895 fps=424 q=-0.0 size=N/A time=00:04:05.62 bitrate=N/A speed=17.7x    frame= 6120 fps=424 q=-0.0 size=N/A time=00:04:15.00 bitrate=N/A speed=17.7x    frame= 6330 fps=424 q=-0.0 size=N/A time=00:04:23.75 bitrate=N/A speed=17.7x    frame= 6563 fps=424 q=-0.0 size=N/A time=00:04:33.45 bitrate=N/A speed=17.7x    frame= 6796 fps=425 q=-0.0 size=N/A time=00:04:43.16 bitrate=N/A speed=17.7x    frame= 7031 fps=426 q=-0.0 size=N/A time=00:04:52.95 bitrate=N/A speed=17.8x    frame= 7254 fps=426 q=-0.0 size=N/A time=00:05:02.25 bitrate=N/A speed=17.8x    frame= 7484 fps=427 q=-0.0 size=N/A time=00:05:11.83 bitrate=N/A speed=17.8x    frame= 7742 fps=429 q=-0.0 size=N/A time=00:05:22.58 bitrate=N/A speed=17.9x    frame= 8014 fps=432 q=-0.0 size=N/A time=00:05:33.91 bitrate=N/A speed=  18x    frame= 8283 fps=434 q=-0.0 size=N/A time=00:05:45.12 bitrate=N/A speed=18.1x    frame= 8530 fps=435 q=-0.0 size=N/A time=00:05:55.41 bitrate=N/A speed=18.1x    frame= 8773 fps=436 q=-0.0 size=N/A time=00:06:05.54 bitrate=N/A speed=18.2x    frame= 9018 fps=438 q=-0.0 size=N/A time=00:06:15.75 bitrate=N/A speed=18.2x    frame= 9242 fps=437 q=-0.0 size=N/A time=00:06:25.08 bitrate=N/A speed=18.2x    frame= 9497 fps=439 q=-0.0 size=N/A time=00:06:35.70 bitrate=N/A speed=18.3x    frame= 9771 fps=441 q=-0.0 size=N/A time=00:06:47.12 bitrate=N/A speed=18.4x    frame=10043 fps=443 q=-0.0 size=N/A time=00:06:58.45 bitrate=N/A speed=18.4x    frame=10303 fps=444 q=-0.0 size=N/A time=00:07:09.29 bitrate=N/A speed=18.5x    frame=10536 fps=444 q=-0.0 size=N/A time=00:07:19.00 bitrate=N/A speed=18.5x    frame=10773 fps=445 q=-0.0 size=N/A time=00:07:28.87 bitrate=N/A speed=18.5x    frame=11012 fps=445 q=-0.0 size=N/A time=00:07:38.83 bitrate=N/A speed=18.5x    frame=11238 fps=445 q=-0.0 size=N/A time=00:07:48.25 bitrate=N/A speed=18.5x    frame=11426 fps=443 q=-0.0 size=N/A time=00:07:56.08 bitrate=N/A speed=18.5x    frame=11654 fps=443 q=-0.0 size=N/A time=00:08:05.58 bitrate=N/A speed=18.5x    frame=11888 fps=444 q=-0.0 size=N/A time=00:08:15.33 bitrate=N/A speed=18.5x    frame=12130 fps=444 q=-0.0 size=N/A time=00:08:25.41 bitrate=N/A speed=18.5x    frame=12333 fps=443 q=-0.0 size=N/A time=00:08:33.87 bitrate=N/A speed=18.5x    frame=12551 fps=443 q=-0.0 size=N/A time=00:08:42.95 bitrate=N/A speed=18.5x    frame=12802 fps=443 q=-0.0 size=N/A time=00:08:53.41 bitrate=N/A speed=18.5x    frame=13034 fps=444 q=-0.0 size=N/A time=00:09:03.08 bitrate=N/A speed=18.5x    frame=13233 fps=443 q=-0.0 size=N/A time=00:09:11.37 bitrate=N/A speed=18.4x    frame=13462 fps=443 q=-0.0 size=N/A time=00:09:20.91 bitrate=N/A speed=18.4x    frame=13715 fps=443 q=-0.0 size=N/A time=00:09:31.45 bitrate=N/A speed=18.5x    frame=13955 fps=444 q=-0.0 size=N/A time=00:09:41.45 bitrate=N/A speed=18.5x    frame=14205 fps=445 q=-0.0 size=N/A time=00:09:51.87 bitrate=N/A speed=18.5x    frame=14452 fps=445 q=-0.0 size=N/A time=00:10:02.16 bitrate=N/A speed=18.5x    frame=14709 fps=446 q=-0.0 size=N/A time=00:10:12.87 bitrate=N/A speed=18.6x    frame=14928 fps=445 q=-0.0 size=N/A time=00:10:22.00 bitrate=N/A speed=18.6x    frame=15114 fps=444 q=-0.0 size=N/A time=00:10:29.75 bitrate=N/A speed=18.5x    frame=15327 fps=444 q=-0.0 size=N/A time=00:10:38.62 bitrate=N/A speed=18.5x    frame=15531 fps=443 q=-0.0 size=N/A time=00:10:47.12 bitrate=N/A speed=18.5x    frame=15781 fps=444 q=-0.0 size=N/A time=00:10:57.54 bitrate=N/A speed=18.5x    frame=16041 fps=445 q=-0.0 size=N/A time=00:11:08.37 bitrate=N/A speed=18.5x    frame=16262 fps=444 q=-0.0 size=N/A time=00:11:17.58 bitrate=N/A speed=18.5x    frame=16487 fps=444 q=-0.0 size=N/A time=00:11:26.95 bitrate=N/A speed=18.5x    frame=16743 fps=445 q=-0.0 size=N/A time=00:11:37.62 bitrate=N/A speed=18.5x    frame=16962 fps=445 q=-0.0 size=N/A time=00:11:46.75 bitrate=N/A speed=18.5x    frame=17211 fps=445 q=-0.0 size=N/A time=00:11:57.12 bitrate=N/A speed=18.5x    frame=17450 fps=445 q=-0.0 size=N/A time=00:12:07.08 bitrate=N/A speed=18.6x    frame=17684 fps=445 q=-0.0 size=N/A time=00:12:16.83 bitrate=N/A speed=18.6x    frame=17930 fps=446 q=-0.0 size=N/A time=00:12:27.08 bitrate=N/A speed=18.6x    frame=18189 fps=447 q=-0.0 size=N/A time=00:12:37.87 bitrate=N/A speed=18.6x    frame=18437 fps=447 q=-0.0 size=N/A time=00:12:48.20 bitrate=N/A speed=18.6x    frame=18683 fps=447 q=-0.0 size=N/A time=00:12:58.45 bitrate=N/A speed=18.6x    frame=18923 fps=448 q=-0.0 size=N/A time=00:13:08.45 bitrate=N/A speed=18.6x    frame=19144 fps=447 q=-0.0 size=N/A time=00:13:17.66 bitrate=N/A speed=18.6x    frame=19395 fps=448 q=-0.0 size=N/A time=00:13:28.12 bitrate=N/A speed=18.7x    frame=19640 fps=448 q=-0.0 size=N/A time=00:13:38.33 bitrate=N/A speed=18.7x    frame=19895 fps=449 q=-0.0 size=N/A time=00:13:48.95 bitrate=N/A speed=18.7x    frame=20147 fps=449 q=-0.0 size=N/A time=00:13:59.45 bitrate=N/A speed=18.7x    frame=20397 fps=450 q=-0.0 size=N/A time=00:14:09.87 bitrate=N/A speed=18.7x    frame=20650 fps=450 q=-0.0 size=N/A time=00:14:20.41 bitrate=N/A speed=18.8x    frame=20912 fps=451 q=-0.0 size=N/A time=00:14:31.33 bitrate=N/A speed=18.8x    frame=21163 fps=451 q=-0.0 size=N/A time=00:14:41.79 bitrate=N/A speed=18.8x    frame=21400 fps=451 q=-0.0 size=N/A time=00:14:51.66 bitrate=N/A speed=18.8x    frame=21655 fps=451 q=-0.0 size=N/A time=00:15:02.29 bitrate=N/A speed=18.8x    frame=21900 fps=452 q=-0.0 size=N/A time=00:15:12.50 bitrate=N/A speed=18.8x    frame=22126 fps=452 q=-0.0 size=N/A time=00:15:21.91 bitrate=N/A speed=18.8x    frame=22379 fps=452 q=-0.0 size=N/A time=00:15:32.45 bitrate=N/A speed=18.8x    frame=22637 fps=452 q=-0.0 size=N/A time=00:15:43.20 bitrate=N/A speed=18.9x    frame=22874 fps=452 q=-0.0 size=N/A time=00:15:53.08 bitrate=N/A speed=18.9x    frame=23106 fps=452 q=-0.0 size=N/A time=00:16:02.75 bitrate=N/A speed=18.8x    frame=23360 fps=453 q=-0.0 size=N/A time=00:16:13.33 bitrate=N/A speed=18.9x    frame=23595 fps=453 q=-0.0 size=N/A time=00:16:23.12 bitrate=N/A speed=18.9x    frame=23842 fps=453 q=-0.0 size=N/A time=00:16:33.41 bitrate=N/A speed=18.9x    frame=24064 fps=453 q=-0.0 size=N/A time=00:16:42.66 bitrate=N/A speed=18.9x    frame=24297 fps=453 q=-0.0 size=N/A time=00:16:52.37 bitrate=N/A speed=18.9x    frame=24542 fps=453 q=-0.0 size=N/A time=00:17:02.58 bitrate=N/A speed=18.9x    frame=24787 fps=453 q=-0.0 size=N/A time=00:17:12.79 bitrate=N/A speed=18.9x    frame=25038 fps=454 q=-0.0 size=N/A time=00:17:23.25 bitrate=N/A speed=18.9x    frame=25278 fps=454 q=-0.0 size=N/A time=00:17:33.25 bitrate=N/A speed=18.9x    frame=25531 fps=454 q=-0.0 size=N/A time=00:17:43.79 bitrate=N/A speed=18.9x    frame=25779 fps=454 q=-0.0 size=N/A time=00:17:54.12 bitrate=N/A speed=18.9x    frame=26040 fps=455 q=-0.0 size=N/A time=00:18:05.00 bitrate=N/A speed=  19x    frame=26262 fps=455 q=-0.0 size=N/A time=00:18:14.25 bitrate=N/A speed=18.9x    frame=26452 fps=454 q=-0.0 size=N/A time=00:18:22.16 bitrate=N/A speed=18.9x    frame=26658 fps=453 q=-0.0 size=N/A time=00:18:30.75 bitrate=N/A speed=18.9x    frame=26867 fps=453 q=-0.0 size=N/A time=00:18:39.45 bitrate=N/A speed=18.9x    frame=27101 fps=453 q=-0.0 size=N/A time=00:18:49.20 bitrate=N/A speed=18.9x    frame=27351 fps=453 q=-0.0 size=N/A time=00:18:59.62 bitrate=N/A speed=18.9x    frame=27579 fps=453 q=-0.0 size=N/A time=00:19:09.12 bitrate=N/A speed=18.9x    frame=27799 fps=453 q=-0.0 size=N/A time=00:19:18.29 bitrate=N/A speed=18.9x    frame=28000 fps=452 q=-0.0 size=N/A time=00:19:26.66 bitrate=N/A speed=18.8x    frame=28214 fps=452 q=-0.0 size=N/A time=00:19:35.58 bitrate=N/A speed=18.8x    frame=28427 fps=452 q=-0.0 size=N/A time=00:19:44.45 bitrate=N/A speed=18.8x    frame=28632 fps=451 q=-0.0 size=N/A time=00:19:53.00 bitrate=N/A speed=18.8x    frame=28849 fps=451 q=-0.0 size=N/A time=00:20:02.04 bitrate=N/A speed=18.8x    frame=29110 fps=451 q=-0.0 size=N/A time=00:20:12.91 bitrate=N/A speed=18.8x    frame=29356 fps=452 q=-0.0 size=N/A time=00:20:23.16 bitrate=N/A speed=18.8x    frame=29563 fps=451 q=-0.0 size=N/A time=00:20:31.79 bitrate=N/A speed=18.8x    frame=29772 fps=451 q=-0.0 size=N/A time=00:20:40.50 bitrate=N/A speed=18.8x    frame=30006 fps=451 q=-0.0 size=N/A time=00:20:50.25 bitrate=N/A speed=18.8x    frame=30237 fps=451 q=-0.0 size=N/A time=00:20:59.87 bitrate=N/A speed=18.8x    frame=30456 fps=451 q=-0.0 size=N/A time=00:21:09.00 bitrate=N/A speed=18.8x    frame=30641 fps=450 q=-0.0 size=N/A time=00:21:16.70 bitrate=N/A speed=18.8x    frame=30873 fps=450 q=-0.0 size=N/A time=00:21:26.37 bitrate=N/A speed=18.7x    frame=31126 fps=450 q=-0.0 size=N/A time=00:21:36.91 bitrate=N/A speed=18.8x    frame=31382 fps=451 q=-0.0 size=N/A time=00:21:47.58 bitrate=N/A speed=18.8x    frame=31604 fps=450 q=-0.0 size=N/A time=00:21:56.83 bitrate=N/A speed=18.8x    frame=31846 fps=451 q=-0.0 size=N/A time=00:22:06.91 bitrate=N/A speed=18.8x    frame=32107 fps=451 q=-0.0 size=N/A time=00:22:17.79 bitrate=N/A speed=18.8x    frame=32347 fps=451 q=-0.0 size=N/A time=00:22:27.79 bitrate=N/A speed=18.8x    frame=32579 fps=451 q=-0.0 size=N/A time=00:22:37.45 bitrate=N/A speed=18.8x    frame=32784 fps=451 q=-0.0 size=N/A time=00:22:46.00 bitrate=N/A speed=18.8x    frame=33018 fps=451 q=-0.0 size=N/A time=00:22:55.75 bitrate=N/A speed=18.8x    frame=33246 fps=451 q=-0.0 size=N/A time=00:23:05.25 bitrate=N/A speed=18.8x    frame=33459 fps=450 q=-0.0 size=N/A time=00:23:14.12 bitrate=N/A speed=18.8x    frame=33706 fps=451 q=-0.0 size=N/A time=00:23:24.41 bitrate=N/A speed=18.8x    frame=33924 fps=450 q=-0.0 size=N/A time=00:23:33.50 bitrate=N/A speed=18.8x    frame=34134 fps=450 q=-0.0 size=N/A time=00:23:42.25 bitrate=N/A speed=18.8x    frame=34348 fps=450 q=-0.0 size=N/A time=00:23:51.16 bitrate=N/A speed=18.7x    frame=34542 fps=449 q=-0.0 size=N/A time=00:23:59.25 bitrate=N/A speed=18.7x    [Parsed_ssim_10 @ 000001a2cb397c40] SSIM Y:0.992854 (21.459260) U:0.993142 (21.638077) V:0.992926 (21.503213) All:0.992914 (21.495901)
[out#0/null @ 000001a2be2e4a40] video:14943KiB audio:271716KiB subtitle:0KiB other streams:0KiB global headers:0KiB muxing overhead: unknown
frame=34776 fps=450 q=-0.0 Lsize=N/A time=00:24:09.00 bitrate=N/A speed=18.7x    
